<svg width="1024" height="1024" viewBox="0 0 1024 1024" fill="none" xmlns="http://www.w3.org/2000/svg">
  <defs>
    <linearGradient id="bg" x1="90" y1="90" x2="934" y2="934" gradientUnits="userSpaceOnUse">
      <stop stop-color="#0C5687"/>
      <stop offset="1" stop-color="#092B47"/>
    </linearGradient>
  </defs>
  <rect x="64" y="64" width="896" height="896" rx="200" fill="url(#bg)"/>
  <path d="M512 248C654 248 770 364 770 506C770 690 589 798 534 852C524 862 500 862 490 852C435 798 254 690 254 506C254 364 370 248 512 248Z" fill="white"/>
  <path d="M512 384L556 456H468L512 384Z" fill="#0C5687"/>
  <path d="M512 430V594" stroke="#0C5687" stroke-width="52" stroke-linecap="round"/>
  <path d="M630 352C699 375 749 438 756 512" stroke="#0C5687" stroke-width="34" stroke-linecap="round"/>
  <path d="M623 452C654 468 675 499 678 534" stroke="#0C5687" stroke-width="28" stroke-linecap="round"/>
  <circle cx="512" cy="602" r="22" fill="#0C5687"/>
</svg>
